<svg xmlns="http://www.w3.org/2000/svg" xmlns:svg="http://www.w3.org/2000/svg" id="svg3447" width="100%" height="100%" hola_ext_inject="disabled" version="1.1" viewBox="0 0 192 192"><metadata id="metadata3457"/><g id="g36190" transform="matrix(0.10994755,0,0,0.1092052,21.194884,29.601717)"><ellipse id="path4753" cx="704.223" cy="604.842" rx="600.236" ry="827.371" transform="matrix(1,0,-0.00936096,0.99995619,0,0)" style="color:#000;clip-rule:nonzero;display:inline;overflow:visible;visibility:visible;opacity:1;isolation:auto;mix-blend-mode:normal;color-interpolation:sRGB;color-interpolation-filters:linearRGB;solid-color:#000;solid-opacity:1;vector-effect:none;fill:#f7ea6e;fill-opacity:.5;fill-rule:evenodd;stroke:none;stroke-width:88.69974518;stroke-linecap:round;stroke-linejoin:miter;stroke-miterlimit:4;stroke-dasharray:none;stroke-dashoffset:0;stroke-opacity:1;color-rendering:auto;image-rendering:auto;shape-rendering:auto;text-rendering:auto;enable-background:accumulate"/><path id="path4752" d="m 193.85252,318.88308 c 0,0 66.46373,-286.624803 361.39649,-383.551059 293.53308,-96.466261 466.63079,41.539827 541.40239,144.00473 69.2966,94.961999 119.0809,236.777009 120.4655,436.168189" style="fill:none;fill-rule:evenodd;stroke:#000;stroke-width:64;stroke-linecap:round;stroke-linejoin:miter;stroke-miterlimit:4;stroke-dasharray:none;stroke-opacity:1"/><path id="path4754" d="M 189.69854,598.58458 C 313.0437,463.76268 335.39409,406.00813 357.24251,353.49961 421.93791,198.01651 537.24843,130.56921 653.55994,69.644127" style="opacity:1;vector-effect:none;fill:none;fill-opacity:1;fill-rule:evenodd;stroke:#000;stroke-width:64;stroke-linecap:round;stroke-linejoin:miter;stroke-miterlimit:4;stroke-dasharray:none;stroke-dashoffset:0;stroke-opacity:1"/><path id="path4756" d="M 228.46904,809.05302 555.24901,338.26833 c 0,0 83.07966,-120.46548 198.00651,-141.2354 114.92686,-20.76992 170.1146,13.91552 203.54515,54.00177 29.71798,35.63455 68.50073,136.89527 -6.9233,243.70032 C 874.45331,601.54006 742.03848,765.26919 639.71333,865.82417 537.38818,966.37912 406.95311,1082.8686 335.08794,1142.7563" style="fill:none;fill-rule:evenodd;stroke:#000;stroke-width:64;stroke-linecap:round;stroke-linejoin:miter;stroke-miterlimit:4;stroke-dasharray:none;stroke-opacity:1"/><path id="path4758" d="M 268.62422,986.28958 C 567.33809,762.98628 600.94283,587.50729 744.94755,424.11731" style="opacity:1;vector-effect:none;fill:none;fill-opacity:1;fill-rule:evenodd;stroke:#000;stroke-width:64;stroke-linecap:round;stroke-linejoin:miter;stroke-miterlimit:4;stroke-dasharray:none;stroke-dashoffset:0;stroke-opacity:1"/><path id="path4760" d="m 1008.0331,616.58518 c 98.3109,139.8507 153.6973,90.00297 191.0832,121.85017" style="fill:none;fill-rule:evenodd;stroke:#000;stroke-width:64;stroke-linecap:round;stroke-linejoin:miter;stroke-miterlimit:4;stroke-dasharray:none;stroke-opacity:1"/><path id="path4762" d="m 873.72102,782.7445 c 0,0 81.81685,31.81042 120.4655,69.23301 38.64868,37.42259 119.08088,91.38764 144.00478,99.69564" style="opacity:1;vector-effect:none;fill:none;fill-opacity:1;fill-rule:evenodd;stroke:#000;stroke-width:64;stroke-linecap:round;stroke-linejoin:miter;stroke-miterlimit:4;stroke-dasharray:none;stroke-dashoffset:0;stroke-opacity:1"/><path id="path4764" d="m 433.39886,1259.0678 c 0,0 176.49009,-136.3601 293.5481,-148.1587 117.05802,-11.7985 245.08498,52.6171 294.93274,99.6956" style="opacity:1;vector-effect:none;fill:none;fill-opacity:1;fill-rule:evenodd;stroke:#000;stroke-width:64;stroke-linecap:round;stroke-linejoin:miter;stroke-miterlimit:4;stroke-dasharray:none;stroke-dashoffset:0;stroke-opacity:1"/><path id="path4766" d="m 545.55639,1329.6855 c 88.61829,-113.5422 285.24014,-66.4637 357.24251,-26.3085" style="fill:none;fill-rule:evenodd;stroke:#000;stroke-width:64;stroke-linecap:round;stroke-linejoin:miter;stroke-miterlimit:4;stroke-dasharray:none;stroke-opacity:1"/><path style="fill:none;fill-rule:evenodd;stroke:#000;stroke-width:64;stroke-linecap:round;stroke-linejoin:miter;stroke-miterlimit:4;stroke-dasharray:none;stroke-opacity:1" id="path4768" d="m 674.32985,993.21296 c 0,0 130.40287,-76.92593 220.16109,-29.07791 89.75821,47.84805 155.73036,95.60905 188.31396,109.38825"/></g></svg>