<svg xmlns="http://www.w3.org/2000/svg" xmlns:svg="http://www.w3.org/2000/svg" id="svg2" width="450.528" height="446.487" version="1.1"><defs id="defs4"><style id="style4146" type="text/css">.fil0{fill:#4d4d4d}.fil1{fill:url(#id0)}</style><linearGradient id="id0" x1="4433.08" x2="4433.08" y1="1971.33" y2="5416.43" gradientUnits="userSpaceOnUse"><stop id="stop4149" style="stop-color:#b3b3b3" offset="0"/><stop id="stop4151" style="stop-color:#999" offset="1"/></linearGradient></defs><metadata id="metadata7"/><g id="layer1" transform="translate(4.7866896,7.5336323)"><g style="clip-rule:evenodd;fill-rule:evenodd;image-rendering:optimizeQuality;shape-rendering:geometricPrecision;text-rendering:geometricPrecision" id="g4167" transform="matrix(0.04740869,0,0,0.04740869,29.018324,90.882349)"><g id="Layer_x0020_1"><metadata id="CorelCorpID_0Corel-Layer"/><path id="path4155" d="m 2709,347 0,-147 C 2709,90 2619,0 2509,0 L 669,0 C 559,0 469,90 469,200 l 0,347 0,617 0,4016 c 0,110 90,200 200,200 l 6973,0 c 110,0 200,-90 200,-200 l 0,-4433 c 0,-110 -90,-200 -200,-200 l -4733,0 c -110,0 -200,-90 -200,-200 z" class="fil0" style="fill:#4d4d4d"/><path id="path4157" d="m 222,1233 c 1311,0 2621,0 3932,0 1311,0 2621,0 3933,0 125,0 228,77 222,172 -39,634 -128,1268 -233,1902 -104,634 -193,1268 -232,1902 -6,94 -94,171 -205,171 -1163,0 -2325,0 -3486,0 -1162,0 -2324,0 -3486,0 -111,0 -198,-77 -204,-171 C 424,4575 335,3941 231,3307 127,2673 41,2039 -1,1405 -3,1310 96,1233 221,1233 Z" class="fil1" style="fill:url(#id0)"/></g></g></g></svg>