<svg xmlns="http://www.w3.org/2000/svg" xmlns:svg="http://www.w3.org/2000/svg" id="svg2" width="450.528" height="446.487" version="1.1"><defs id="defs4"><marker id="marker4648" orient="auto" refX="0" refY="0" style="overflow:visible"><path id="path4650" d="M 0.0,0.0 L 5.0,-5.0 L -12.5,0.0 L 5.0,5.0 L 0.0,0.0 z" style="fill-rule:evenodd;stroke:#eaeaea;stroke-width:1pt;stroke-opacity:1;fill:#eaeaea;fill-opacity:1" transform="scale(0.4) translate(10,0)"/></marker><marker id="Arrow2Lstart" orient="auto" refX="0" refY="0" style="overflow:visible"><path id="path4178" style="fill-rule:evenodd;stroke-width:.625;stroke-linejoin:round;stroke:#eaeaea;stroke-opacity:1;fill:#eaeaea;fill-opacity:1" d="M 8.7185878,4.0337352 L -2.2072895,0.016013256 L 8.7185884,-4.0017078 C 6.9730900,-1.6296469 6.9831476,1.6157441 8.7185878,4.0337352 z" transform="scale(1.1) translate(1,0)"/></marker><marker id="Arrow1Mstart" orient="auto" refX="0" refY="0" style="overflow:visible"><path id="path4166" d="M 0.0,0.0 L 5.0,-5.0 L -12.5,0.0 L 5.0,5.0 L 0.0,0.0 z" style="fill-rule:evenodd;stroke:#eaeaea;stroke-width:1pt;stroke-opacity:1;fill:#eaeaea;fill-opacity:1" transform="scale(0.4) translate(10,0)"/></marker><marker id="marker4508" orient="auto" refX="0" refY="0" style="overflow:visible"><path id="path4510" d="M 0.0,0.0 L 5.0,-5.0 L -12.5,0.0 L 5.0,5.0 L 0.0,0.0 z" style="fill-rule:evenodd;stroke:#eaeaea;stroke-width:1pt;stroke-opacity:1;fill:#eaeaea;fill-opacity:1" transform="scale(0.8) translate(12.5,0)"/></marker><marker id="marker4474" orient="auto" refX="0" refY="0" style="overflow:visible"><path id="path4476" d="M 0.0,0.0 L 5.0,-5.0 L -12.5,0.0 L 5.0,5.0 L 0.0,0.0 z" style="fill-rule:evenodd;stroke:#eaeaea;stroke-width:1pt;stroke-opacity:1;fill:#eaeaea;fill-opacity:1" transform="scale(0.8) translate(12.5,0)"/></marker><marker id="Arrow1Lstart" orient="auto" refX="0" refY="0" style="overflow:visible"><path id="path4160" d="M 0.0,0.0 L 5.0,-5.0 L -12.5,0.0 L 5.0,5.0 L 0.0,0.0 z" style="fill-rule:evenodd;stroke:#eaeaea;stroke-width:1pt;stroke-opacity:1;fill:#eaeaea;fill-opacity:1" transform="scale(0.8) translate(12.5,0)"/></marker><marker id="Arrow1Lend" orient="auto" refX="0" refY="0" style="overflow:visible"><path id="path4163" d="M 0.0,0.0 L 5.0,-5.0 L -12.5,0.0 L 5.0,5.0 L 0.0,0.0 z" style="fill-rule:evenodd;stroke:#eaeaea;stroke-width:1pt;stroke-opacity:1;fill:#eaeaea;fill-opacity:1" transform="scale(0.8) rotate(180) translate(12.5,0)"/></marker></defs><metadata id="metadata7"/><g id="layer1" transform="translate(4.7866896,7.5336323)"><rect style="fill:none;stroke:none" id="rect2988" width="450.528" height="446.487" x="-20.203" y="-20.688" transform="translate(15.416361,13.154129)"/><path style="fill:none;stroke:#eaeaea;stroke-width:28.95897865;stroke-linecap:square;stroke-linejoin:round;stroke-miterlimit:4;stroke-dasharray:57.91795841,57.91795841;stroke-dashoffset:300;stroke-opacity:1;marker-start:url(#marker4648)" id="path3943" d="m 217.44687,66.340396 0,319.088124"/><text xml:space="preserve" style="font-style:normal;font-weight:400;font-size:15px;line-height:125%;font-family:Sans;letter-spacing:0;word-spacing:0;fill:#eaeaea;fill-opacity:1;stroke:none;stroke-width:1px;stroke-linecap:butt;stroke-linejoin:miter;stroke-opacity:1" id="text4142" x="294.218" y="214.7"><tspan id="tspan4144" x="294.218" y="214.7" style="font-style:normal;font-variant:normal;font-weight:700;font-stretch:normal;font-size:250px;font-family:Sans;-inkscape-font-specification:'Sans Bold'">?</tspan></text><path style="fill:none;fill-rule:evenodd;stroke:#eaeaea;stroke-width:20;stroke-linecap:butt;stroke-linejoin:miter;stroke-opacity:1;stroke-miterlimit:4;stroke-dasharray:none" id="path4154" d="m 24.507734,395.51724 398.000096,0"/></g></svg>