<svg xmlns="http://www.w3.org/2000/svg" xmlns:svg="http://www.w3.org/2000/svg" id="svg3447" width="100%" height="100%" hola_ext_inject="disabled" version="1.1" viewBox="0 -256 1792 1792"><metadata id="metadata3457"/><g id="g3449" transform="matrix(0.91145467,0,0,-0.89592141,242.31072,1062.9489)" style="fill:#000;fill-opacity:1"><path id="path3451" d="m 1536,640 c 0,-104 -61,-298 -61,-298 0,0 -137.198,-145.65024 -243.0932,84.31356 0,0 48.0932,144.35311 48.0932,213.68644 0,69.33333 -13.5,135.5 -40.5,198.5 -27,63 -63.5,117.5 -109.5,163.5 -46,46 -100.5,82.5 -163.5,109.5 -63,27 -129.16667,40.5 -198.5,40.5 -65.33333,0 -128,-11.8333 -188,-35.5 C 520,1092.8333 466.66667,1059 420,1015 L 557,877 c 20.66667,-20 25.33333,-43 14,-69 -11.33333,-26.66667 -31,-40 -59,-40 L 64,768 C 46.666667,768 31.666667,774.33333 19,787 6.3333333,799.66667 0,814.66667 0,832 l 0,448 c 0,28 13.333333,47.6667 40,59 26,11.3333 49,6.6667 69,-14 l 130,-129 c 71.33333,67.3333 152.83333,119.5 244.5,156.5 91.66667,37 186.5,55.5 284.5,55.5 104,0 203.33333,-20.3333 298,-61 94.6667,-40.6667 176.3333,-95.3333 245,-164 68.6667,-68.6667 123.3333,-150.3333 164,-245 40.6667,-94.66667 61,-194 61,-298 z" style="fill:#dedede;fill-opacity:1"/></g><g style="fill:#dedede;fill-opacity:1;font-variant-east_asian:normal;opacity:1;vector-effect:none;stroke-width:.99999999;stroke-linecap:butt;stroke-linejoin:miter;stroke-miterlimit:4;stroke-dasharray:none;stroke-dashoffset:0;stroke-opacity:1" id="g4138" transform="matrix(-0.91145467,0,0,0.89592141,1597.4181,205.82525)"><path style="fill:#dedede;fill-opacity:1;font-variant-east_asian:normal;vector-effect:none;stroke-width:.99999999;stroke-linecap:butt;stroke-linejoin:miter;stroke-miterlimit:4;stroke-dasharray:none;stroke-dashoffset:0;stroke-opacity:1" id="path4140" d="m 1536,640 c 0,-104 -61,-298 -61,-298 0,0 -137.198,-145.65024 -243.0932,84.31356 0,0 48.0932,144.35311 48.0932,213.68644 0,69.33333 -13.5,135.5 -40.5,198.5 -27,63 -63.5,117.5 -109.5,163.5 -46,46 -100.5,82.5 -163.5,109.5 -63,27 -129.16667,40.5 -198.5,40.5 -65.33333,0 -128,-11.8333 -188,-35.5 C 520,1092.8333 466.66667,1059 420,1015 L 557,877 c 20.66667,-20 25.33333,-43 14,-69 -11.33333,-26.66667 -31,-40 -59,-40 L 64,768 C 46.666667,768 31.666667,774.33333 19,787 6.3333333,799.66667 0,814.66667 0,832 l 0,448 c 0,28 13.333333,47.6667 40,59 26,11.3333 49,6.6667 69,-14 l 130,-129 c 71.33333,67.3333 152.83333,119.5 244.5,156.5 91.66667,37 186.5,55.5 284.5,55.5 104,0 203.33333,-20.3333 298,-61 94.6667,-40.6667 176.3333,-95.3333 245,-164 68.6667,-68.6667 123.3333,-150.3333 164,-245 40.6667,-94.66667 61,-194 61,-298 z"/></g></svg>