<svg xmlns="http://www.w3.org/2000/svg" xmlns:svg="http://www.w3.org/2000/svg" id="svg2" width="450.528" height="446.487" version="1.1"><defs id="defs4"><marker id="marker4648" orient="auto" refX="0" refY="0" style="overflow:visible"><path id="path4650" d="M 0.0,0.0 L 5.0,-5.0 L -12.5,0.0 L 5.0,5.0 L 0.0,0.0 z" style="fill-rule:evenodd;stroke:#eaeaea;stroke-width:1pt;stroke-opacity:1;fill:#eaeaea;fill-opacity:1" transform="scale(0.4) translate(10,0)"/></marker><marker id="Arrow2Lstart" orient="auto" refX="0" refY="0" style="overflow:visible"><path id="path4178" style="fill-rule:evenodd;stroke-width:.625;stroke-linejoin:round;stroke:#eaeaea;stroke-opacity:1;fill:#eaeaea;fill-opacity:1" d="M 8.7185878,4.0337352 L -2.2072895,0.016013256 L 8.7185884,-4.0017078 C 6.9730900,-1.6296469 6.9831476,1.6157441 8.7185878,4.0337352 z" transform="scale(1.1) translate(1,0)"/></marker><marker id="Arrow1Mstart" orient="auto" refX="0" refY="0" style="overflow:visible"><path id="path4166" d="M 0.0,0.0 L 5.0,-5.0 L -12.5,0.0 L 5.0,5.0 L 0.0,0.0 z" style="fill-rule:evenodd;stroke:#eaeaea;stroke-width:1pt;stroke-opacity:1;fill:#eaeaea;fill-opacity:1" transform="scale(0.4) translate(10,0)"/></marker><marker id="marker4508" orient="auto" refX="0" refY="0" style="overflow:visible"><path id="path4510" d="M 0.0,0.0 L 5.0,-5.0 L -12.5,0.0 L 5.0,5.0 L 0.0,0.0 z" style="fill-rule:evenodd;stroke:#eaeaea;stroke-width:1pt;stroke-opacity:1;fill:#eaeaea;fill-opacity:1" transform="scale(0.8) translate(12.5,0)"/></marker><marker id="marker4474" orient="auto" refX="0" refY="0" style="overflow:visible"><path id="path4476" d="M 0.0,0.0 L 5.0,-5.0 L -12.5,0.0 L 5.0,5.0 L 0.0,0.0 z" style="fill-rule:evenodd;stroke:#eaeaea;stroke-width:1pt;stroke-opacity:1;fill:#eaeaea;fill-opacity:1" transform="scale(0.8) translate(12.5,0)"/></marker><marker id="Arrow1Lstart" orient="auto" refX="0" refY="0" style="overflow:visible"><path id="path4160" d="M 0.0,0.0 L 5.0,-5.0 L -12.5,0.0 L 5.0,5.0 L 0.0,0.0 z" style="fill-rule:evenodd;stroke:#eaeaea;stroke-width:1pt;stroke-opacity:1;fill:#eaeaea;fill-opacity:1" transform="scale(0.8) translate(12.5,0)"/></marker><marker id="Arrow1Lend" orient="auto" refX="0" refY="0" style="overflow:visible"><path id="path4163" d="M 0.0,0.0 L 5.0,-5.0 L -12.5,0.0 L 5.0,5.0 L 0.0,0.0 z" style="fill-rule:evenodd;stroke:#eaeaea;stroke-width:1pt;stroke-opacity:1;fill:#eaeaea;fill-opacity:1" transform="scale(0.8) rotate(180) translate(12.5,0)"/></marker></defs><metadata id="metadata7"/><g id="layer1" transform="translate(4.7866896,7.5336323)"><rect style="fill:none;fill-opacity:1;stroke:#fff;stroke-width:16.17104912;stroke-miterlimit:4;stroke-dasharray:97.02629752,16.17104958999999909;stroke-dashoffset:0;stroke-opacity:1" id="rect4206" width="383.829" height="383.829" x="29.299" y="21.039"/><text xml:space="preserve" style="font-style:normal;font-variant:normal;font-weight:400;font-stretch:normal;font-size:396.54290771px;line-height:125%;font-family:'Noto Sans Symbols';-inkscape-font-specification:'Noto Sans Symbols';letter-spacing:0;word-spacing:0;fill:#fff;fill-opacity:1;stroke:none;stroke-width:9.91357231px;stroke-linecap:butt;stroke-linejoin:miter;stroke-opacity:1" id="text872" x="86.749" y="353.954"><tspan id="tspan870" x="86.749" y="353.954" style="fill:#fff;stroke-width:9.91357231px">R</tspan></text></g></svg>